<?xml version="1.0" encoding="utf-8"?>
<!-- Generator: Adobe Illustrator 22.1.0, SVG Export Plug-In . SVG Version: 6.00 Build 0)  -->
<svg version="1.1" id="图层_1" xmlns="http://www.w3.org/2000/svg" xmlns:xlink="http://www.w3.org/1999/xlink" x="0px" y="0px"
	 viewBox="0 0 2537.1 2456.7" style="enable-background:new 0 0 2537.1 2456.7;" xml:space="preserve">
<style type="text/css">
	.st0{fill:#FFFFFF;}
	.st1{fill:url(#SVGID_1_);}
	.st2{fill:url(#SVGID_2_);}
</style>
<g id="Circle">
	<circle class="st0" cx="1269" cy="1235.5" r="919.5"/>
	<radialGradient id="SVGID_1_" cx="1271.5259" cy="1222" r="854" gradientTransform="matrix(1 0 0 -1 0 2456)" gradientUnits="userSpaceOnUse">
		<stop  offset="0" style="stop-color:#FFFFFF"/>
		<stop  offset="0.1133" style="stop-color:#F2F2F2"/>
		<stop  offset="0.3218" style="stop-color:#D1D1D1"/>
		<stop  offset="0.602" style="stop-color:#9A9A9A"/>
		<stop  offset="0.9402" style="stop-color:#505050"/>
		<stop  offset="1" style="stop-color:#424242"/>
	</radialGradient>
	<circle class="st1" cx="1271.5" cy="1234" r="854"/>
	
		<radialGradient id="SVGID_2_" cx="1275.0259" cy="1218.5" r="425.5" gradientTransform="matrix(1 0 0 -1 0 2456)" gradientUnits="userSpaceOnUse">
		<stop  offset="0" style="stop-color:#000000"/>
		<stop  offset="1" style="stop-color:#5C5C5C"/>
	</radialGradient>
	<circle class="st2" cx="1275" cy="1237.5" r="425.5"/>
</g>
<g id="Frame">
	<polygon class="st0" points="1223.5,380 964.5,832 1032.5,832 1268.5,423 1505.5,832 1570.5,832 1280.5,325 1255.5,325 	"/>
	<polygon class="st0" points="767.5,1176 476.5,1681 485.5,1698 1069.5,1698 1036.5,1641 564.5,1642 801.5,1233 	"/>
	<polygon class="st0" points="1969.5,1640 1507.5,1640 1472.5,1698 2050.5,1698 2060.5,1684 1766.5,1176 1717.5,1203 	"/>
</g>
<g id="a">
	<path class="st0" d="M1556.6,1436c-29.3,0-55-5.2-77.2-15.5s-40.6-24.5-55.2-42.3c-14.7-17.9-25.5-39-32.7-63.2
		s-10.7-50.4-10.7-78.3c0-37.9,6.4-71.3,19.3-100.2c12.9-28.9,29.7-53.1,50.4-72.4c20.7-19.3,44.3-34,70.8-44s53.2-15,80.4-15
		c12.9,0,25.4,1.4,37.5,4.3c12.1,2.9,22.9,6.1,32.2,9.6c10,2.9,20,7.1,30,12.9l59-30l9.6,3.2c0,55.8,0.2,111.5,0.5,167.2
		s0.5,111.5,0.5,167.2c0,27.9,12.1,41.5,36.4,40.8c5.7,0,10.5-0.9,14.5-2.7s7.7-3.8,11.3-5.9c1.4-1.4,3-2.8,4.8-4.3s3.4-2.9,4.8-4.3
		l10.7,5.4c-5.7,13.6-12.2,25-19.3,34.3c-6.4,8.6-14.7,16.3-24.7,23.1s-22.2,10.2-36.4,10.2c-22.9,0-39.3-7.5-49.3-22.5
		s-15-36.1-15-63.2v-31.1c-5,15-11.6,29.5-19.8,43.4s-18.4,26.4-30.5,37.5c-12.2,11.1-26.6,19.8-43.4,26.3S1578.8,1436,1556.6,1436z
		 M1709.9,1200.1c0-51.4-9.1-91.6-27.3-120.6c-18.2-28.9-50.2-43.4-95.9-43.4c-15.7,0-32.2,3.2-49.3,9.7s-32.9,16.6-47.2,30.5
		s-26.1,32-35.4,54.1c-9.3,22.2-13.9,48.6-13.9,79.3c0,24.3,3.2,47.4,9.6,69.2s15.5,41.1,27.3,57.9c11.8,16.8,26.4,30,44,39.7
		c17.5,9.7,37.3,14.5,59.5,14.5c17.9,0,34.7-4.5,50.4-13.4s29.3-21.4,40.8-37.5s20.5-35,27.3-56.8s10.2-45.6,10.2-71.3V1200.1z"/>
</g>
<g id="t_1_">
	<path class="st0" d="M1111.5,1281c0,23.3,0,68,0,68h123c0,0,0,291.3,0,436c-0.1,4.9-0.5,40.9,27,63c33,26.5,76.3,9.1,84,6
		c39.7-16,54.4-53,57-60c-4-1.7-8-3.3-12-5c-3.7,3.2-8.6,6.9-15,10c-12.5,6.1-24.1,7-31,7c-1.6,0.2-18.7,1.9-30-11
		c-6.8-7.7-7.7-17.3-8-21c-1.7-19,0-425,0-425s81.3,0,122,0c0-22.7,0-45.3,0-68c-40.7,0-81.3,0-122,0c0-38.3,0-76.7,0-115
		c-24,0-48,0-72,0c0,38.3,0,76.7,0,115C1193.5,1281,1152.5,1281,1111.5,1281z"/>
</g>
<g id="s_1_">
	<path class="st0" d="M1109.2,890.2c-20.7-93.4-72-140-153.9-140c-19.2,0-37.1,3-53.5,9.1s-30.8,14.1-43.3,24
		c-12.5,10-22.1,21.8-28.9,35.3c-6.8,13.5-10.2,27.8-10.2,42.8c0,12.8,2.1,24.2,6.4,34.2c4.3,10,12.5,20.5,24.6,31.5
		c12.1,11,28.9,23,50.2,35.8s48.8,28.2,82.3,46c34.2,17.1,63.2,32.6,87.1,46.5c23.9,13.9,43.6,28.5,59.3,43.8
		c15.7,15.3,27.1,32.2,34.2,50.8s10.7,41,10.7,67.3c0,59.9-20.9,108.2-62.5,144.9s-100,55-174.8,55c-69.1,0-132.2-16.8-189.2-50.2
		l11.8-159.3h15c2.8,25.7,10,49.5,21.4,71.6s25.5,41.2,42.2,57.2s35.5,28.7,56.1,37.9c20.7,9.3,41.7,13.9,63.1,13.9
		c19.2,0,38.1-3,56.7-9.1c18.5-6.1,34.7-14.4,48.6-25.1c13.9-10.7,25.1-23.7,33.7-39c8.5-15.3,12.8-32.2,12.8-50.8
		c0-17.1-2.5-31.9-7.5-44.4s-13.7-24.8-26.2-36.9c-12.5-12.1-29.4-24.6-50.8-37.4c-21.4-12.8-48.5-27.8-81.2-44.9
		c-63.4-33.5-109.8-65.9-139-97.3s-43.8-67.3-43.8-108c0-25.7,5.2-49,15.5-70c10.3-21,24.9-39.4,43.8-55.1
		c18.9-15.7,41.2-27.8,66.8-36.3c25.7-8.5,54.2-12.8,85.5-12.8c61.3,0,113,15.7,155,47l-4.3,121.9H1109.2z"/>
</g>
</svg>
